<svg version="1.1" id="Layer_1" xmlns="http://www.w3.org/2000/svg" xmlns:xlink="http://www.w3.org/1999/xlink" x="0px" y="0px"
	 width="100%" viewBox="0 0 512 512" enable-background="new 0 0 512 512" xml:space="preserve">
<path fill="#000000" opacity="1.000000" stroke="none" 
	d="
M284.274292,68.239044 
	C284.296661,96.420769 284.296661,124.124260 284.296661,152.994095 
	C289.215179,149.157715 290.584839,144.714462 292.784760,140.973297 
	C304.656738,120.783768 316.275360,100.444702 327.886169,80.102852 
	C329.219177,77.767456 330.270325,76.969193 332.897583,78.516495 
	C346.065948,86.271851 359.304260,93.910698 372.599426,101.446823 
	C375.733612,103.223358 375.818939,105.395973 374.307922,108.077141 
	C368.763031,117.915977 363.219360,127.756226 357.573029,137.536926 
	C351.515686,148.029602 345.330566,158.448410 339.223633,168.912567 
	C328.507141,187.275284 317.804382,205.646072 307.107239,224.020111 
	C306.203339,225.572678 305.147217,227.096176 305.349396,229.095230 
	C307.260406,230.184479 309.294159,229.667191 311.226410,229.668610 
	C354.716980,229.700638 398.207611,229.687347 441.698212,229.686401 
	C449.268951,229.686234 449.257660,229.694168 449.260376,237.480881 
	C449.265198,251.144485 449.141357,264.810577 449.379059,278.470276 
	C449.459686,283.104279 447.791718,284.442719 443.267670,284.410370 
	C418.107727,284.230499 392.945770,284.307770 367.784607,284.347290 
	C365.684692,284.350586 363.455292,283.820953 361.081635,285.434662 
	C365.448334,289.256744 370.718231,291.237610 375.412018,294.022156 
	C394.693878,305.460785 414.184845,316.547119 433.609680,327.744324 
	C435.737854,328.971100 437.527222,329.737915 435.582642,332.976593 
	C427.887878,345.792358 420.430359,358.755005 413.130341,371.800507 
	C411.115112,375.401947 408.846771,376.167969 405.461609,374.200378 
	C383.634705,361.514008 361.841553,348.769470 339.992706,336.121002 
	C324.902802,327.385315 309.780212,318.703949 294.577789,310.166504 
	C291.634888,308.513824 289.276489,305.538788 285.573547,305.400665 
	C283.601227,307.409393 284.345001,309.697205 284.342712,311.750793 
	C284.294159,355.241364 284.304932,398.731964 284.299713,442.222565 
	C284.298889,449.179596 284.289215,449.194824 277.453888,449.203705 
	C263.790161,449.221405 250.126465,449.227966 236.462753,449.224396 
	C229.717529,449.222626 229.687424,449.207794 229.682922,442.636444 
	C229.666031,417.975098 229.687225,393.313751 229.634338,368.652496 
	C229.630249,366.743805 230.278870,364.638763 227.772247,361.904022 
	C213.156128,387.060181 198.768204,411.823608 184.106644,437.057953 
	C176.119644,432.482422 168.392715,428.066345 160.676285,423.632050 
	C154.486130,420.074829 148.381714,416.359619 142.096085,412.980865 
	C138.755264,411.185059 137.764694,408.973877 139.650955,405.709991 
	C150.704010,386.584747 161.828629,367.500793 172.861649,348.364014 
	C183.401245,330.083008 193.992828,311.829651 204.293015,293.413910 
	C209.166336,284.700928 208.763901,284.331055 198.689880,284.328491 
	C156.365692,284.317688 114.041489,284.323151 71.717293,284.314423 
	C64.840866,284.312988 64.826279,284.293671 64.814697,277.343781 
	C64.791382,263.346832 64.917664,249.347763 64.694672,235.354141 
	C64.624924,230.977219 66.107788,229.585587 70.466499,229.614822 
	C95.126747,229.780151 119.788704,229.718307 144.449936,229.667038 
	C146.858337,229.662033 149.461182,230.274551 152.226974,227.954254 
	C145.372345,223.857056 138.821442,219.845764 132.180054,215.990341 
	C115.082603,206.064972 97.940147,196.217133 80.829185,186.314972 
	C78.432854,184.928207 77.140457,183.494476 79.014183,180.348923 
	C86.669617,167.497284 94.125145,154.523636 101.456238,141.483551 
	C103.615608,137.642593 106.160477,138.515274 108.945869,140.121918 
	C124.907623,149.328873 140.824295,158.613998 156.785782,167.821426 
	C178.205917,180.177643 199.627106,192.532593 221.101349,204.794342 
	C229.534164,209.609482 229.680084,209.448959 229.680069,199.786514 
	C229.679977,157.129059 229.675598,114.471588 229.679260,71.814125 
	C229.679855,64.818947 229.694870,64.808937 236.489685,64.802658 
	C250.653275,64.789551 264.816956,64.762642 278.980347,64.808479 
	C281.187775,64.815628 283.941406,64.207817 284.274292,68.239044 
z"/>
</svg>